<mxfile host="drawio-plugin" modified="2023-06-07T08:24:38.249Z" agent="5.0 (Windows NT 6.2; Win64; x64) AppleWebKit/537.36 (KHTML, like Gecko) Chrome/104.0.5112.102 Safari/537.36" etag="U93HdJKnPrKgnybI859G" version="20.5.3" type="embed"><diagram name="‫صفحه - 1‬" id="F1m91PCNNAoViGsc5jh9"><mxGraphModel dx="30720" dy="6050" grid="1" gridSize="48" guides="0" tooltips="1" connect="1" arrows="1" fold="1" page="0" pageScale="1" pageWidth="2336" pageHeight="1654" math="0" shadow="0"><root><mxCell id="0"/><mxCell id="1" parent="0"/><mxCell id="sSwKtTmqPd0ZeNd2JIRh-5" style="edgeStyle=orthogonalEdgeStyle;rounded=0;orthogonalLoop=1;jettySize=auto;html=1;exitX=0.5;exitY=1;exitDx=0;exitDy=0;entryX=0.5;entryY=0;entryDx=0;entryDy=0;strokeWidth=12;shadow=0;" parent="1" source="sSwKtTmqPd0ZeNd2JIRh-1" target="sSwKtTmqPd0ZeNd2JIRh-3" edge="1"><mxGeometry relative="1" as="geometry"/></mxCell><mxCell id="sSwKtTmqPd0ZeNd2JIRh-6" style="edgeStyle=orthogonalEdgeStyle;rounded=0;orthogonalLoop=1;jettySize=auto;html=1;exitX=0.5;exitY=1;exitDx=0;exitDy=0;entryX=0.5;entryY=0;entryDx=0;entryDy=0;strokeWidth=12;shadow=0;" parent="1" source="sSwKtTmqPd0ZeNd2JIRh-1" target="sSwKtTmqPd0ZeNd2JIRh-4" edge="1"><mxGeometry relative="1" as="geometry"><Array as="points"><mxPoint x="830" y="96"/><mxPoint x="3345" y="96"/></Array></mxGeometry></mxCell><mxCell id="sSwKtTmqPd0ZeNd2JIRh-7" style="edgeStyle=orthogonalEdgeStyle;rounded=0;orthogonalLoop=1;jettySize=auto;html=1;exitX=0.5;exitY=1;exitDx=0;exitDy=0;strokeWidth=12;shadow=0;" parent="1" source="sSwKtTmqPd0ZeNd2JIRh-1" target="sSwKtTmqPd0ZeNd2JIRh-2" edge="1"><mxGeometry relative="1" as="geometry"/></mxCell><mxCell id="fuii63_GBz4Z8jPMlrWE-23" style="edgeStyle=orthogonalEdgeStyle;rounded=0;orthogonalLoop=1;jettySize=auto;html=1;exitX=0.5;exitY=1;exitDx=0;exitDy=0;" parent="1" source="sSwKtTmqPd0ZeNd2JIRh-1" target="fuii63_GBz4Z8jPMlrWE-22" edge="1"><mxGeometry relative="1" as="geometry"/></mxCell><mxCell id="fuii63_GBz4Z8jPMlrWE-24" style="edgeStyle=orthogonalEdgeStyle;rounded=0;orthogonalLoop=1;jettySize=auto;html=1;exitX=0.5;exitY=1;exitDx=0;exitDy=0;fillColor=#008a00;strokeColor=#005700;strokeWidth=12;" parent="1" source="sSwKtTmqPd0ZeNd2JIRh-1" target="fuii63_GBz4Z8jPMlrWE-22" edge="1"><mxGeometry relative="1" as="geometry"/></mxCell><mxCell id="fuii63_GBz4Z8jPMlrWE-28" style="edgeStyle=orthogonalEdgeStyle;rounded=0;orthogonalLoop=1;jettySize=auto;html=1;exitX=0.5;exitY=1;exitDx=0;exitDy=0;fillColor=#008a00;strokeColor=#005700;strokeWidth=12;" parent="1" source="sSwKtTmqPd0ZeNd2JIRh-1" target="fuii63_GBz4Z8jPMlrWE-27" edge="1"><mxGeometry relative="1" as="geometry"><Array as="points"><mxPoint x="828" y="96"/><mxPoint x="-17832" y="96"/></Array></mxGeometry></mxCell><mxCell id="sSwKtTmqPd0ZeNd2JIRh-1" value="&lt;font style=&quot;font-size: 48px;&quot;&gt;START&lt;/font&gt;" style="ellipse;whiteSpace=wrap;html=1;aspect=fixed;strokeWidth=12;shadow=0;" parent="1" vertex="1"><mxGeometry x="624" y="-528" width="408" height="408" as="geometry"/></mxCell><mxCell id="sSwKtTmqPd0ZeNd2JIRh-60" style="edgeStyle=orthogonalEdgeStyle;rounded=0;orthogonalLoop=1;jettySize=auto;html=1;exitX=0.5;exitY=1;exitDx=0;exitDy=0;entryX=0.5;entryY=0;entryDx=0;entryDy=0;strokeWidth=12;shadow=0;" parent="1" source="sSwKtTmqPd0ZeNd2JIRh-2" target="sSwKtTmqPd0ZeNd2JIRh-58" edge="1"><mxGeometry relative="1" as="geometry"/></mxCell><mxCell id="sSwKtTmqPd0ZeNd2JIRh-61" style="edgeStyle=orthogonalEdgeStyle;rounded=0;orthogonalLoop=1;jettySize=auto;html=1;exitX=0.5;exitY=1;exitDx=0;exitDy=0;entryX=0.5;entryY=0;entryDx=0;entryDy=0;strokeWidth=12;shadow=0;" parent="1" source="sSwKtTmqPd0ZeNd2JIRh-2" target="sSwKtTmqPd0ZeNd2JIRh-57" edge="1"><mxGeometry relative="1" as="geometry"/></mxCell><mxCell id="sSwKtTmqPd0ZeNd2JIRh-62" style="edgeStyle=orthogonalEdgeStyle;rounded=0;orthogonalLoop=1;jettySize=auto;html=1;exitX=0.5;exitY=1;exitDx=0;exitDy=0;entryX=0.5;entryY=0;entryDx=0;entryDy=0;strokeWidth=12;shadow=0;" parent="1" source="sSwKtTmqPd0ZeNd2JIRh-2" target="sSwKtTmqPd0ZeNd2JIRh-59" edge="1"><mxGeometry relative="1" as="geometry"/></mxCell><mxCell id="sSwKtTmqPd0ZeNd2JIRh-2" value="&lt;font style=&quot;font-size: 48px;&quot;&gt;User&lt;/font&gt;" style="rhombus;whiteSpace=wrap;html=1;strokeWidth=12;shadow=0;" parent="1" vertex="1"><mxGeometry x="-1968" y="288" width="432" height="432" as="geometry"/></mxCell><mxCell id="sSwKtTmqPd0ZeNd2JIRh-3" value="&lt;span style=&quot;font-size: 48px;&quot;&gt;Exit&lt;/span&gt;" style="rhombus;whiteSpace=wrap;html=1;strokeWidth=12;shadow=0;" parent="1" vertex="1"><mxGeometry x="655" y="430" width="350" height="370" as="geometry"/></mxCell><mxCell id="fuii63_GBz4Z8jPMlrWE-106" style="edgeStyle=orthogonalEdgeStyle;rounded=0;orthogonalLoop=1;jettySize=auto;html=1;exitX=1;exitY=0.5;exitDx=0;exitDy=0;strokeWidth=12;fillColor=#008a00;strokeColor=#005700;" parent="1" source="sSwKtTmqPd0ZeNd2JIRh-4" target="fuii63_GBz4Z8jPMlrWE-22" edge="1"><mxGeometry relative="1" as="geometry"/></mxCell><mxCell id="fuii63_GBz4Z8jPMlrWE-147" style="edgeStyle=orthogonalEdgeStyle;rounded=0;orthogonalLoop=1;jettySize=auto;html=1;exitX=0.5;exitY=1;exitDx=0;exitDy=0;strokeWidth=12;fillColor=#008a00;strokeColor=#005700;" parent="1" source="sSwKtTmqPd0ZeNd2JIRh-4" target="fuii63_GBz4Z8jPMlrWE-142" edge="1"><mxGeometry relative="1" as="geometry"><Array as="points"><mxPoint x="3456" y="770"/><mxPoint x="3456" y="1584"/><mxPoint x="4176" y="1584"/></Array></mxGeometry></mxCell><mxCell id="fuii63_GBz4Z8jPMlrWE-155" style="edgeStyle=orthogonalEdgeStyle;rounded=0;orthogonalLoop=1;jettySize=auto;html=1;exitX=0;exitY=0.5;exitDx=0;exitDy=0;entryX=1;entryY=0.5;entryDx=0;entryDy=0;strokeWidth=12;fillColor=#008a00;strokeColor=#005700;" parent="1" source="sSwKtTmqPd0ZeNd2JIRh-4" target="fuii63_GBz4Z8jPMlrWE-154" edge="1"><mxGeometry relative="1" as="geometry"><Array as="points"><mxPoint x="2928" y="577"/><mxPoint x="2928" y="912"/></Array></mxGeometry></mxCell><mxCell id="fuii63_GBz4Z8jPMlrWE-156" style="edgeStyle=orthogonalEdgeStyle;rounded=0;orthogonalLoop=1;jettySize=auto;html=1;exitX=0.5;exitY=1;exitDx=0;exitDy=0;strokeWidth=12;" parent="1" source="sSwKtTmqPd0ZeNd2JIRh-4" edge="1"><mxGeometry relative="1" as="geometry"><mxPoint x="3345" y="1248" as="targetPoint"/></mxGeometry></mxCell><mxCell id="60RMkCieqsHSDHHVUvW2-29" style="edgeStyle=orthogonalEdgeStyle;rounded=0;orthogonalLoop=1;jettySize=auto;html=1;exitX=0.5;exitY=1;exitDx=0;exitDy=0;entryX=1;entryY=0.5;entryDx=0;entryDy=0;strokeWidth=12;fillColor=#008a00;strokeColor=#005700;" parent="1" source="sSwKtTmqPd0ZeNd2JIRh-4" target="fuii63_GBz4Z8jPMlrWE-27" edge="1"><mxGeometry relative="1" as="geometry"><Array as="points"><mxPoint x="3345" y="1488"/><mxPoint x="-17568" y="1488"/></Array></mxGeometry></mxCell><mxCell id="sSwKtTmqPd0ZeNd2JIRh-4" value="&lt;font style=&quot;font-size: 48px;&quot;&gt;Admin&lt;/font&gt;" style="rhombus;whiteSpace=wrap;html=1;strokeWidth=12;shadow=0;" parent="1" vertex="1"><mxGeometry x="3160" y="384" width="370" height="386" as="geometry"/></mxCell><mxCell id="sSwKtTmqPd0ZeNd2JIRh-14" style="edgeStyle=orthogonalEdgeStyle;rounded=0;orthogonalLoop=1;jettySize=auto;html=1;exitX=0.5;exitY=1;exitDx=0;exitDy=0;strokeWidth=12;shadow=0;" parent="1" target="sSwKtTmqPd0ZeNd2JIRh-11" edge="1"><mxGeometry relative="1" as="geometry"><Array as="points"><mxPoint x="3345" y="1248"/><mxPoint x="2928" y="1248"/></Array><mxPoint x="3345" y="1110" as="sourcePoint"/></mxGeometry></mxCell><mxCell id="sSwKtTmqPd0ZeNd2JIRh-15" style="edgeStyle=orthogonalEdgeStyle;rounded=0;orthogonalLoop=1;jettySize=auto;html=1;entryX=0.5;entryY=0;entryDx=0;entryDy=0;strokeWidth=12;shadow=0;" parent="1" target="sSwKtTmqPd0ZeNd2JIRh-12" edge="1"><mxGeometry relative="1" as="geometry"><Array as="points"><mxPoint x="3345" y="1248"/><mxPoint x="1875" y="1248"/></Array><mxPoint x="3345" y="768" as="sourcePoint"/></mxGeometry></mxCell><mxCell id="60RMkCieqsHSDHHVUvW2-27" style="edgeStyle=orthogonalEdgeStyle;rounded=0;orthogonalLoop=1;jettySize=auto;html=1;exitX=0.5;exitY=1;exitDx=0;exitDy=0;strokeWidth=4;fillColor=#008a00;strokeColor=#005700;" parent="1" source="fuii63_GBz4Z8jPMlrWE-76" target="60RMkCieqsHSDHHVUvW2-26" edge="1"><mxGeometry relative="1" as="geometry"><mxPoint x="13437" y="2064.000000000001" as="sourcePoint"/><Array as="points"><mxPoint x="13437" y="1944"/><mxPoint x="13437" y="2184"/><mxPoint x="13224" y="2184"/></Array></mxGeometry></mxCell><mxCell id="sSwKtTmqPd0ZeNd2JIRh-43" style="edgeStyle=orthogonalEdgeStyle;rounded=0;orthogonalLoop=1;jettySize=auto;html=1;exitX=0.5;exitY=1;exitDx=0;exitDy=0;strokeWidth=12;shadow=0;" parent="1" source="sSwKtTmqPd0ZeNd2JIRh-11" target="sSwKtTmqPd0ZeNd2JIRh-40" edge="1"><mxGeometry relative="1" as="geometry"/></mxCell><mxCell id="sSwKtTmqPd0ZeNd2JIRh-44" style="edgeStyle=orthogonalEdgeStyle;rounded=0;orthogonalLoop=1;jettySize=auto;html=1;exitX=0.5;exitY=1;exitDx=0;exitDy=0;entryX=0.5;entryY=0;entryDx=0;entryDy=0;strokeWidth=12;shadow=0;" parent="1" source="sSwKtTmqPd0ZeNd2JIRh-11" target="sSwKtTmqPd0ZeNd2JIRh-41" edge="1"><mxGeometry relative="1" as="geometry"><Array as="points"><mxPoint x="2930" y="1920"/><mxPoint x="3792" y="1920"/></Array></mxGeometry></mxCell><mxCell id="sSwKtTmqPd0ZeNd2JIRh-45" style="edgeStyle=orthogonalEdgeStyle;rounded=0;orthogonalLoop=1;jettySize=auto;html=1;exitX=0.5;exitY=1;exitDx=0;exitDy=0;entryX=0.5;entryY=0;entryDx=0;entryDy=0;strokeWidth=12;shadow=0;" parent="1" source="sSwKtTmqPd0ZeNd2JIRh-11" target="sSwKtTmqPd0ZeNd2JIRh-42" edge="1"><mxGeometry relative="1" as="geometry"><Array as="points"><mxPoint x="2930" y="1920"/><mxPoint x="1608" y="1920"/></Array></mxGeometry></mxCell><mxCell id="fuii63_GBz4Z8jPMlrWE-149" style="edgeStyle=orthogonalEdgeStyle;rounded=0;orthogonalLoop=1;jettySize=auto;html=1;exitX=0.5;exitY=1;exitDx=0;exitDy=0;entryX=0.5;entryY=0;entryDx=0;entryDy=0;strokeWidth=12;fillColor=#008a00;strokeColor=#005700;" parent="1" source="sSwKtTmqPd0ZeNd2JIRh-11" target="fuii63_GBz4Z8jPMlrWE-148" edge="1"><mxGeometry relative="1" as="geometry"><Array as="points"><mxPoint x="2930" y="1920"/><mxPoint x="1992" y="1920"/></Array></mxGeometry></mxCell><mxCell id="sSwKtTmqPd0ZeNd2JIRh-11" value="&lt;font style=&quot;font-size: 48px;&quot;&gt;Users&lt;/font&gt;" style="rhombus;whiteSpace=wrap;html=1;strokeWidth=12;shadow=0;" parent="1" vertex="1"><mxGeometry x="2736" y="1440" width="388" height="350" as="geometry"/></mxCell><mxCell id="sSwKtTmqPd0ZeNd2JIRh-12" value="&lt;font style=&quot;font-size: 48px;&quot;&gt;Back&lt;/font&gt;" style="rhombus;whiteSpace=wrap;html=1;strokeWidth=12;shadow=0;" parent="1" vertex="1"><mxGeometry x="1680" y="1488" width="390" height="370" as="geometry"/></mxCell><mxCell id="sSwKtTmqPd0ZeNd2JIRh-49" style="edgeStyle=orthogonalEdgeStyle;rounded=0;orthogonalLoop=1;jettySize=auto;html=1;exitX=0.5;exitY=1;exitDx=0;exitDy=0;entryX=0.5;entryY=0;entryDx=0;entryDy=0;strokeWidth=12;shadow=0;" parent="1" source="sSwKtTmqPd0ZeNd2JIRh-40" target="sSwKtTmqPd0ZeNd2JIRh-47" edge="1"><mxGeometry relative="1" as="geometry"/></mxCell><mxCell id="sSwKtTmqPd0ZeNd2JIRh-40" value="&lt;font style=&quot;font-size: 48px;&quot;&gt;User Setting&lt;/font&gt;" style="shape=parallelogram;perimeter=parallelogramPerimeter;whiteSpace=wrap;html=1;fixedSize=1;strokeWidth=12;shadow=0;" parent="1" vertex="1"><mxGeometry x="2640" y="2160" width="576" height="192" as="geometry"/></mxCell><mxCell id="sSwKtTmqPd0ZeNd2JIRh-53" style="edgeStyle=orthogonalEdgeStyle;rounded=0;orthogonalLoop=1;jettySize=auto;html=1;exitX=0.5;exitY=1;exitDx=0;exitDy=0;entryX=0.5;entryY=0;entryDx=0;entryDy=0;strokeWidth=12;shadow=0;" parent="1" source="sSwKtTmqPd0ZeNd2JIRh-41" target="sSwKtTmqPd0ZeNd2JIRh-52" edge="1"><mxGeometry relative="1" as="geometry"/></mxCell><mxCell id="sSwKtTmqPd0ZeNd2JIRh-41" value="&lt;font style=&quot;font-size: 48px;&quot;&gt;Create a user&lt;/font&gt;" style="shape=parallelogram;perimeter=parallelogramPerimeter;whiteSpace=wrap;html=1;fixedSize=1;strokeWidth=12;shadow=0;" parent="1" vertex="1"><mxGeometry x="3552" y="1968" width="480" height="192" as="geometry"/></mxCell><mxCell id="sSwKtTmqPd0ZeNd2JIRh-42" value="&lt;font style=&quot;font-size: 48px;&quot;&gt;Back&lt;/font&gt;" style="shape=parallelogram;perimeter=parallelogramPerimeter;whiteSpace=wrap;html=1;fixedSize=1;strokeWidth=12;shadow=0;" parent="1" vertex="1"><mxGeometry x="1392" y="2064" width="432" height="192" as="geometry"/></mxCell><mxCell id="sSwKtTmqPd0ZeNd2JIRh-56" style="edgeStyle=orthogonalEdgeStyle;rounded=0;orthogonalLoop=1;jettySize=auto;html=1;exitX=0.5;exitY=1;exitDx=0;exitDy=0;entryX=0.5;entryY=0;entryDx=0;entryDy=0;strokeWidth=12;shadow=0;" parent="1" source="sSwKtTmqPd0ZeNd2JIRh-47" target="sSwKtTmqPd0ZeNd2JIRh-55" edge="1"><mxGeometry relative="1" as="geometry"/></mxCell><mxCell id="sSwKtTmqPd0ZeNd2JIRh-47" value="&lt;font style=&quot;font-size: 48px;&quot;&gt;User Search&lt;/font&gt;" style="rounded=0;whiteSpace=wrap;html=1;strokeWidth=12;shadow=0;" parent="1" vertex="1"><mxGeometry x="2640" y="2544" width="576" height="240" as="geometry"/></mxCell><mxCell id="sSwKtTmqPd0ZeNd2JIRh-51" value="&lt;font style=&quot;font-size: 48px;&quot;&gt;Creating the User&lt;/font&gt;" style="rounded=0;whiteSpace=wrap;html=1;strokeWidth=12;shadow=0;" parent="1" vertex="1"><mxGeometry x="3504" y="2976" width="576" height="240" as="geometry"/></mxCell><mxCell id="sSwKtTmqPd0ZeNd2JIRh-54" style="edgeStyle=orthogonalEdgeStyle;rounded=0;orthogonalLoop=1;jettySize=auto;html=1;exitX=0.5;exitY=1;exitDx=0;exitDy=0;entryX=0.5;entryY=0;entryDx=0;entryDy=0;strokeWidth=12;shadow=0;" parent="1" source="sSwKtTmqPd0ZeNd2JIRh-52" target="sSwKtTmqPd0ZeNd2JIRh-51" edge="1"><mxGeometry relative="1" as="geometry"/></mxCell><mxCell id="sSwKtTmqPd0ZeNd2JIRh-52" value="&lt;font style=&quot;font-size: 48px;&quot;&gt;Getting Information of a&amp;nbsp;&lt;br&gt;User&lt;br&gt;&lt;/font&gt;" style="shape=parallelogram;perimeter=parallelogramPerimeter;whiteSpace=wrap;html=1;fixedSize=1;strokeWidth=12;shadow=0;" parent="1" vertex="1"><mxGeometry x="3456" y="2496" width="672" height="240" as="geometry"/></mxCell><mxCell id="sSwKtTmqPd0ZeNd2JIRh-55" value="&lt;font style=&quot;font-size: 48px;&quot;&gt;Modify &amp;amp; Delete&amp;nbsp;&lt;br&gt;User&lt;/font&gt;" style="rhombus;whiteSpace=wrap;html=1;strokeWidth=12;shadow=0;" parent="1" vertex="1"><mxGeometry x="2736" y="3024" width="384" height="384" as="geometry"/></mxCell><mxCell id="sSwKtTmqPd0ZeNd2JIRh-57" value="&lt;font style=&quot;font-size: 48px;&quot;&gt;Back&lt;/font&gt;" style="rhombus;whiteSpace=wrap;html=1;strokeWidth=12;shadow=0;" parent="1" vertex="1"><mxGeometry x="-288" y="960" width="528" height="480" as="geometry"/></mxCell><mxCell id="sSwKtTmqPd0ZeNd2JIRh-67" style="edgeStyle=orthogonalEdgeStyle;rounded=0;orthogonalLoop=1;jettySize=auto;html=1;exitX=0.5;exitY=1;exitDx=0;exitDy=0;entryX=0.5;entryY=0;entryDx=0;entryDy=0;strokeWidth=12;shadow=0;" parent="1" source="sSwKtTmqPd0ZeNd2JIRh-58" target="sSwKtTmqPd0ZeNd2JIRh-65" edge="1"><mxGeometry relative="1" as="geometry"/></mxCell><mxCell id="sSwKtTmqPd0ZeNd2JIRh-58" value="&lt;font style=&quot;font-size: 48px;&quot;&gt;Sign Up&lt;/font&gt;" style="rhombus;whiteSpace=wrap;html=1;strokeWidth=12;shadow=0;" parent="1" vertex="1"><mxGeometry x="-2016" y="960" width="528" height="480" as="geometry"/></mxCell><mxCell id="sSwKtTmqPd0ZeNd2JIRh-74" style="edgeStyle=orthogonalEdgeStyle;rounded=0;orthogonalLoop=1;jettySize=auto;html=1;exitX=0.5;exitY=1;exitDx=0;exitDy=0;strokeWidth=12;shadow=0;" parent="1" source="sSwKtTmqPd0ZeNd2JIRh-59" target="sSwKtTmqPd0ZeNd2JIRh-69" edge="1"><mxGeometry relative="1" as="geometry"><Array as="points"><mxPoint x="-4880" y="1824"/></Array></mxGeometry></mxCell><mxCell id="sSwKtTmqPd0ZeNd2JIRh-76" style="edgeStyle=orthogonalEdgeStyle;rounded=0;orthogonalLoop=1;jettySize=auto;html=1;exitX=0.5;exitY=1;exitDx=0;exitDy=0;strokeWidth=12;shadow=0;" parent="1" source="sSwKtTmqPd0ZeNd2JIRh-59" target="sSwKtTmqPd0ZeNd2JIRh-70" edge="1"><mxGeometry relative="1" as="geometry"><Array as="points"><mxPoint x="-4880" y="2256"/><mxPoint x="-4880" y="2256"/></Array></mxGeometry></mxCell><mxCell id="sSwKtTmqPd0ZeNd2JIRh-77" style="edgeStyle=orthogonalEdgeStyle;rounded=0;orthogonalLoop=1;jettySize=auto;html=1;exitX=0.5;exitY=1;exitDx=0;exitDy=0;entryX=0.5;entryY=0;entryDx=0;entryDy=0;strokeWidth=12;shadow=0;" parent="1" source="sSwKtTmqPd0ZeNd2JIRh-59" target="sSwKtTmqPd0ZeNd2JIRh-71" edge="1"><mxGeometry relative="1" as="geometry"><Array as="points"><mxPoint x="-4880" y="1824"/><mxPoint x="-8136" y="1824"/></Array></mxGeometry></mxCell><mxCell id="sSwKtTmqPd0ZeNd2JIRh-79" style="edgeStyle=orthogonalEdgeStyle;rounded=0;orthogonalLoop=1;jettySize=auto;html=1;exitX=0.5;exitY=1;exitDx=0;exitDy=0;entryX=0.5;entryY=0;entryDx=0;entryDy=0;strokeWidth=12;shadow=0;" parent="1" source="sSwKtTmqPd0ZeNd2JIRh-59" target="sSwKtTmqPd0ZeNd2JIRh-72" edge="1"><mxGeometry relative="1" as="geometry"><Array as="points"><mxPoint x="-4880" y="1824"/><mxPoint x="-10992" y="1824"/></Array></mxGeometry></mxCell><mxCell id="sSwKtTmqPd0ZeNd2JIRh-80" style="edgeStyle=orthogonalEdgeStyle;rounded=0;orthogonalLoop=1;jettySize=auto;html=1;exitX=0.5;exitY=1;exitDx=0;exitDy=0;entryX=0.5;entryY=0;entryDx=0;entryDy=0;strokeWidth=12;shadow=0;" parent="1" source="sSwKtTmqPd0ZeNd2JIRh-59" target="sSwKtTmqPd0ZeNd2JIRh-73" edge="1"><mxGeometry relative="1" as="geometry"><Array as="points"><mxPoint x="-4880" y="1824"/><mxPoint x="-14520" y="1824"/></Array></mxGeometry></mxCell><mxCell id="fuii63_GBz4Z8jPMlrWE-151" style="edgeStyle=orthogonalEdgeStyle;rounded=0;orthogonalLoop=1;jettySize=auto;html=1;exitX=1;exitY=0.5;exitDx=0;exitDy=0;entryX=0.5;entryY=0;entryDx=0;entryDy=0;strokeWidth=12;fillColor=#008a00;strokeColor=#005700;" parent="1" source="sSwKtTmqPd0ZeNd2JIRh-71" target="fuii63_GBz4Z8jPMlrWE-150" edge="1"><mxGeometry relative="1" as="geometry"/></mxCell><mxCell id="sSwKtTmqPd0ZeNd2JIRh-59" value="&lt;font style=&quot;font-size: 48px;&quot;&gt;Sign In&lt;/font&gt;" style="rhombus;whiteSpace=wrap;html=1;strokeWidth=12;shadow=0;" parent="1" vertex="1"><mxGeometry x="-5136" y="960" width="512" height="464" as="geometry"/></mxCell><mxCell id="sSwKtTmqPd0ZeNd2JIRh-63" value="&lt;font style=&quot;font-size: 48px;&quot;&gt;Creating the User&lt;/font&gt;" style="rounded=0;whiteSpace=wrap;html=1;strokeWidth=12;shadow=0;" parent="1" vertex="1"><mxGeometry x="-2016" y="2304" width="528" height="240" as="geometry"/></mxCell><mxCell id="sSwKtTmqPd0ZeNd2JIRh-64" style="edgeStyle=orthogonalEdgeStyle;rounded=0;orthogonalLoop=1;jettySize=auto;html=1;exitX=0.5;exitY=1;exitDx=0;exitDy=0;entryX=0.5;entryY=0;entryDx=0;entryDy=0;strokeWidth=12;shadow=0;" parent="1" source="sSwKtTmqPd0ZeNd2JIRh-65" target="sSwKtTmqPd0ZeNd2JIRh-63" edge="1"><mxGeometry relative="1" as="geometry"/></mxCell><mxCell id="sSwKtTmqPd0ZeNd2JIRh-65" value="&lt;font style=&quot;font-size: 48px;&quot;&gt;Getting Information of a&amp;nbsp;&lt;br&gt;User&lt;br&gt;&lt;/font&gt;" style="shape=parallelogram;perimeter=parallelogramPerimeter;whiteSpace=wrap;html=1;fixedSize=1;strokeWidth=12;shadow=0;" parent="1" vertex="1"><mxGeometry x="-2064" y="1632" width="624" height="240" as="geometry"/></mxCell><mxCell id="sSwKtTmqPd0ZeNd2JIRh-69" value="&lt;font style=&quot;font-size: 48px;&quot;&gt;Back&lt;/font&gt;" style="rhombus;whiteSpace=wrap;html=1;strokeWidth=12;shadow=0;" parent="1" vertex="1"><mxGeometry x="-3600" y="2112" width="576" height="528" as="geometry"/></mxCell><mxCell id="fuii63_GBz4Z8jPMlrWE-15" style="edgeStyle=orthogonalEdgeStyle;rounded=0;orthogonalLoop=1;jettySize=auto;html=1;exitX=0.5;exitY=1;exitDx=0;exitDy=0;entryX=0.5;entryY=0;entryDx=0;entryDy=0;strokeWidth=12;shadow=0;" parent="1" source="sSwKtTmqPd0ZeNd2JIRh-70" target="fuii63_GBz4Z8jPMlrWE-14" edge="1"><mxGeometry relative="1" as="geometry"/></mxCell><mxCell id="fuii63_GBz4Z8jPMlrWE-16" style="edgeStyle=orthogonalEdgeStyle;rounded=0;orthogonalLoop=1;jettySize=auto;html=1;exitX=0.5;exitY=1;exitDx=0;exitDy=0;entryX=0.5;entryY=0;entryDx=0;entryDy=0;strokeWidth=12;shadow=0;" parent="1" source="sSwKtTmqPd0ZeNd2JIRh-70" target="fuii63_GBz4Z8jPMlrWE-13" edge="1"><mxGeometry relative="1" as="geometry"/></mxCell><mxCell id="fuii63_GBz4Z8jPMlrWE-17" style="edgeStyle=orthogonalEdgeStyle;rounded=0;orthogonalLoop=1;jettySize=auto;html=1;exitX=0.5;exitY=1;exitDx=0;exitDy=0;strokeWidth=12;shadow=0;" parent="1" source="sSwKtTmqPd0ZeNd2JIRh-70" target="fuii63_GBz4Z8jPMlrWE-12" edge="1"><mxGeometry relative="1" as="geometry"/></mxCell><mxCell id="fuii63_GBz4Z8jPMlrWE-18" style="edgeStyle=orthogonalEdgeStyle;rounded=0;orthogonalLoop=1;jettySize=auto;html=1;exitX=0.5;exitY=1;exitDx=0;exitDy=0;strokeWidth=12;shadow=0;" parent="1" source="sSwKtTmqPd0ZeNd2JIRh-70" target="fuii63_GBz4Z8jPMlrWE-11" edge="1"><mxGeometry relative="1" as="geometry"/></mxCell><mxCell id="fuii63_GBz4Z8jPMlrWE-20" style="edgeStyle=orthogonalEdgeStyle;rounded=0;orthogonalLoop=1;jettySize=auto;html=1;exitX=0.5;exitY=1;exitDx=0;exitDy=0;strokeWidth=12;shadow=0;" parent="1" source="sSwKtTmqPd0ZeNd2JIRh-70" target="fuii63_GBz4Z8jPMlrWE-19" edge="1"><mxGeometry relative="1" as="geometry"/></mxCell><mxCell id="sSwKtTmqPd0ZeNd2JIRh-70" value="&lt;font style=&quot;font-size: 48px;&quot;&gt;Friends&lt;/font&gt;" style="rhombus;whiteSpace=wrap;html=1;strokeWidth=12;shadow=0;" parent="1" vertex="1"><mxGeometry x="-5184" y="2880" width="576" height="528" as="geometry"/></mxCell><mxCell id="fuii63_GBz4Z8jPMlrWE-5" style="edgeStyle=orthogonalEdgeStyle;rounded=0;orthogonalLoop=1;jettySize=auto;html=1;exitX=0.5;exitY=1;exitDx=0;exitDy=0;strokeWidth=12;shadow=0;" parent="1" source="sSwKtTmqPd0ZeNd2JIRh-71" target="fuii63_GBz4Z8jPMlrWE-1" edge="1"><mxGeometry relative="1" as="geometry"/></mxCell><mxCell id="fuii63_GBz4Z8jPMlrWE-8" style="edgeStyle=orthogonalEdgeStyle;rounded=0;orthogonalLoop=1;jettySize=auto;html=1;exitX=0.5;exitY=1;exitDx=0;exitDy=0;strokeWidth=12;shadow=0;" parent="1" source="sSwKtTmqPd0ZeNd2JIRh-71" target="fuii63_GBz4Z8jPMlrWE-4" edge="1"><mxGeometry relative="1" as="geometry"><Array as="points"><mxPoint x="-8136" y="3072"/><mxPoint x="-9240" y="3072"/></Array></mxGeometry></mxCell><mxCell id="fuii63_GBz4Z8jPMlrWE-109" style="edgeStyle=orthogonalEdgeStyle;rounded=0;orthogonalLoop=1;jettySize=auto;html=1;exitX=0.5;exitY=1;exitDx=0;exitDy=0;strokeWidth=12;fillColor=#008a00;strokeColor=#005700;" parent="1" source="sSwKtTmqPd0ZeNd2JIRh-71" target="fuii63_GBz4Z8jPMlrWE-108" edge="1"><mxGeometry relative="1" as="geometry"/></mxCell><mxCell id="sSwKtTmqPd0ZeNd2JIRh-71" value="&lt;font style=&quot;font-size: 48px;&quot;&gt;Store&lt;/font&gt;" style="rhombus;whiteSpace=wrap;html=1;strokeWidth=12;shadow=0;" parent="1" vertex="1"><mxGeometry x="-8400" y="2352" width="528" height="528" as="geometry"/></mxCell><mxCell id="sSwKtTmqPd0ZeNd2JIRh-96" style="edgeStyle=orthogonalEdgeStyle;rounded=0;orthogonalLoop=1;jettySize=auto;html=1;exitX=0.5;exitY=1;exitDx=0;exitDy=0;strokeWidth=12;shadow=0;" parent="1" source="sSwKtTmqPd0ZeNd2JIRh-72" target="sSwKtTmqPd0ZeNd2JIRh-95" edge="1"><mxGeometry relative="1" as="geometry"/></mxCell><mxCell id="sSwKtTmqPd0ZeNd2JIRh-97" style="edgeStyle=orthogonalEdgeStyle;rounded=0;orthogonalLoop=1;jettySize=auto;html=1;exitX=0.5;exitY=1;exitDx=0;exitDy=0;strokeWidth=12;shadow=0;" parent="1" source="sSwKtTmqPd0ZeNd2JIRh-72" target="sSwKtTmqPd0ZeNd2JIRh-94" edge="1"><mxGeometry relative="1" as="geometry"/></mxCell><mxCell id="sSwKtTmqPd0ZeNd2JIRh-72" value="&lt;font style=&quot;font-size: 48px;&quot;&gt;Library&lt;/font&gt;" style="rhombus;whiteSpace=wrap;html=1;strokeWidth=12;shadow=0;" parent="1" vertex="1"><mxGeometry x="-11280" y="2256" width="576" height="528" as="geometry"/></mxCell><mxCell id="sSwKtTmqPd0ZeNd2JIRh-85" style="edgeStyle=orthogonalEdgeStyle;rounded=0;orthogonalLoop=1;jettySize=auto;html=1;exitX=0.5;exitY=1;exitDx=0;exitDy=0;entryX=0.5;entryY=0;entryDx=0;entryDy=0;strokeWidth=12;fontSize=48;shadow=0;" parent="1" source="sSwKtTmqPd0ZeNd2JIRh-73" target="sSwKtTmqPd0ZeNd2JIRh-83" edge="1"><mxGeometry relative="1" as="geometry"/></mxCell><mxCell id="sSwKtTmqPd0ZeNd2JIRh-86" style="edgeStyle=orthogonalEdgeStyle;rounded=0;orthogonalLoop=1;jettySize=auto;html=1;exitX=0.5;exitY=1;exitDx=0;exitDy=0;entryX=0.5;entryY=0;entryDx=0;entryDy=0;strokeWidth=12;fontSize=48;shadow=0;" parent="1" source="sSwKtTmqPd0ZeNd2JIRh-73" target="sSwKtTmqPd0ZeNd2JIRh-82" edge="1"><mxGeometry relative="1" as="geometry"/></mxCell><mxCell id="sSwKtTmqPd0ZeNd2JIRh-87" style="edgeStyle=orthogonalEdgeStyle;rounded=0;orthogonalLoop=1;jettySize=auto;html=1;exitX=0.5;exitY=1;exitDx=0;exitDy=0;strokeWidth=12;fontSize=48;shadow=0;" parent="1" source="sSwKtTmqPd0ZeNd2JIRh-73" target="sSwKtTmqPd0ZeNd2JIRh-84" edge="1"><mxGeometry relative="1" as="geometry"/></mxCell><mxCell id="sSwKtTmqPd0ZeNd2JIRh-93" style="edgeStyle=orthogonalEdgeStyle;rounded=0;orthogonalLoop=1;jettySize=auto;html=1;exitX=0.5;exitY=1;exitDx=0;exitDy=0;strokeWidth=12;fontSize=48;shadow=0;" parent="1" source="sSwKtTmqPd0ZeNd2JIRh-73" target="sSwKtTmqPd0ZeNd2JIRh-88" edge="1"><mxGeometry relative="1" as="geometry"/></mxCell><mxCell id="sSwKtTmqPd0ZeNd2JIRh-73" value="&lt;font style=&quot;font-size: 48px;&quot;&gt;Profile&lt;/font&gt;" style="rhombus;whiteSpace=wrap;html=1;strokeWidth=12;shadow=0;" parent="1" vertex="1"><mxGeometry x="-14784" y="2352" width="528" height="528" as="geometry"/></mxCell><mxCell id="sSwKtTmqPd0ZeNd2JIRh-82" value="show information" style="rhombus;html=1;strokeWidth=12;fontSize=48;shadow=0;" parent="1" vertex="1"><mxGeometry x="-16272" y="3168" width="384" height="384" as="geometry"/></mxCell><mxCell id="sSwKtTmqPd0ZeNd2JIRh-83" value="change information" style="rhombus;html=1;strokeWidth=12;fontSize=48;shadow=0;" parent="1" vertex="1"><mxGeometry x="-15360" y="3168" width="432" height="384" as="geometry"/></mxCell><mxCell id="sSwKtTmqPd0ZeNd2JIRh-84" value="wallet charging" style="rhombus;html=1;strokeWidth=12;fontSize=48;shadow=0;" parent="1" vertex="1"><mxGeometry x="-14208" y="3168" width="384" height="384" as="geometry"/></mxCell><mxCell id="sSwKtTmqPd0ZeNd2JIRh-88" value="Back" style="rhombus;html=1;strokeWidth=12;fontSize=48;shadow=0;" parent="1" vertex="1"><mxGeometry x="-13056" y="3168" width="384" height="368" as="geometry"/></mxCell><mxCell id="sSwKtTmqPd0ZeNd2JIRh-94" value="Show your games&lt;br&gt;&lt;font color=&quot;#00ff00&quot;&gt;and&amp;nbsp;accessories&lt;/font&gt;" style="rhombus;whiteSpace=wrap;html=1;labelBorderColor=default;fontSize=48;strokeWidth=12;shadow=0;" parent="1" vertex="1"><mxGeometry x="-11808" y="2928" width="528" height="432" as="geometry"/></mxCell><mxCell id="sSwKtTmqPd0ZeNd2JIRh-95" value="back" style="rhombus;whiteSpace=wrap;html=1;labelBorderColor=default;fontSize=48;strokeWidth=12;shadow=0;" parent="1" vertex="1"><mxGeometry x="-10704" y="2928" width="432" height="432" as="geometry"/></mxCell><mxCell id="fuii63_GBz4Z8jPMlrWE-1" value="back" style="rhombus;whiteSpace=wrap;html=1;fontSize=48;strokeWidth=12;shadow=0;" parent="1" vertex="1"><mxGeometry x="-7392" y="3264" width="432" height="432" as="geometry"/></mxCell><mxCell id="fuii63_GBz4Z8jPMlrWE-2" value="Filter games&amp;nbsp;&lt;font color=&quot;#00ff00&quot;&gt;and&amp;nbsp;accessories&lt;/font&gt;&lt;br&gt;&amp;nbsp;by price" style="rhombus;whiteSpace=wrap;html=1;fontSize=48;strokeWidth=12;shadow=0;" parent="1" vertex="1"><mxGeometry x="-7920" y="3984" width="432" height="432" as="geometry"/></mxCell><mxCell id="fuii63_GBz4Z8jPMlrWE-3" value="Search all game&lt;br&gt;&lt;font color=&quot;#00ff00&quot;&gt;and&amp;nbsp;accessories&lt;/font&gt;" style="rhombus;whiteSpace=wrap;html=1;fontSize=48;strokeWidth=12;shadow=0;" parent="1" vertex="1"><mxGeometry x="-8784" y="3984" width="432" height="432" as="geometry"/></mxCell><mxCell id="fuii63_GBz4Z8jPMlrWE-153" style="edgeStyle=orthogonalEdgeStyle;rounded=0;orthogonalLoop=1;jettySize=auto;html=1;exitX=0.5;exitY=1;exitDx=0;exitDy=0;strokeWidth=12;fillColor=#008a00;strokeColor=#005700;" parent="1" source="fuii63_GBz4Z8jPMlrWE-4" target="fuii63_GBz4Z8jPMlrWE-152" edge="1"><mxGeometry relative="1" as="geometry"/></mxCell><mxCell id="fuii63_GBz4Z8jPMlrWE-4" value="Show all games&lt;br&gt;&lt;font color=&quot;#00ff00&quot;&gt;and&amp;nbsp;accessories&lt;/font&gt;" style="rhombus;whiteSpace=wrap;html=1;fontSize=48;strokeWidth=12;shadow=0;" parent="1" vertex="1"><mxGeometry x="-9456" y="3312" width="432" height="384" as="geometry"/></mxCell><mxCell id="fuii63_GBz4Z8jPMlrWE-11" value="See requests" style="rhombus;whiteSpace=wrap;html=1;fontSize=48;strokeWidth=12;shadow=0;" parent="1" vertex="1"><mxGeometry x="-3888" y="3600" width="480" height="432" as="geometry"/></mxCell><mxCell id="fuii63_GBz4Z8jPMlrWE-12" value="Send request" style="rhombus;whiteSpace=wrap;html=1;fontSize=48;strokeWidth=12;shadow=0;" parent="1" vertex="1"><mxGeometry x="-4512" y="3600" width="480" height="432" as="geometry"/></mxCell><mxCell id="fuii63_GBz4Z8jPMlrWE-13" value="Search friends" style="rhombus;whiteSpace=wrap;html=1;fontSize=48;strokeWidth=12;shadow=0;" parent="1" vertex="1"><mxGeometry x="-5136" y="3600" width="480" height="432" as="geometry"/></mxCell><mxCell id="fuii63_GBz4Z8jPMlrWE-14" value="Show all friends" style="rhombus;whiteSpace=wrap;html=1;fontSize=48;strokeWidth=12;shadow=0;" parent="1" vertex="1"><mxGeometry x="-5856" y="3600" width="480" height="432" as="geometry"/></mxCell><mxCell id="fuii63_GBz4Z8jPMlrWE-19" value="back" style="rhombus;whiteSpace=wrap;html=1;fontSize=48;strokeWidth=12;shadow=0;" parent="1" vertex="1"><mxGeometry x="-3216" y="3600" width="432" height="432" as="geometry"/></mxCell><mxCell id="fuii63_GBz4Z8jPMlrWE-72" style="edgeStyle=orthogonalEdgeStyle;rounded=0;orthogonalLoop=1;jettySize=auto;html=1;exitX=0.5;exitY=1;exitDx=0;exitDy=0;fillColor=#008a00;strokeColor=#005700;strokeWidth=12;" parent="1" source="fuii63_GBz4Z8jPMlrWE-22" target="fuii63_GBz4Z8jPMlrWE-67" edge="1"><mxGeometry relative="1" as="geometry"/></mxCell><mxCell id="fuii63_GBz4Z8jPMlrWE-96" style="edgeStyle=orthogonalEdgeStyle;rounded=0;orthogonalLoop=1;jettySize=auto;html=1;exitX=0.5;exitY=1;exitDx=0;exitDy=0;entryX=0.5;entryY=0;entryDx=0;entryDy=0;strokeWidth=12;fillColor=#008a00;strokeColor=#005700;" parent="1" source="fuii63_GBz4Z8jPMlrWE-22" target="fuii63_GBz4Z8jPMlrWE-76" edge="1"><mxGeometry relative="1" as="geometry"><Array as="points"><mxPoint x="10200" y="1056"/><mxPoint x="13485" y="1056"/></Array></mxGeometry></mxCell><mxCell id="fuii63_GBz4Z8jPMlrWE-98" style="edgeStyle=orthogonalEdgeStyle;rounded=0;orthogonalLoop=1;jettySize=auto;html=1;exitX=0.5;exitY=1;exitDx=0;exitDy=0;entryX=0.5;entryY=0;entryDx=0;entryDy=0;strokeWidth=12;fillColor=#008a00;strokeColor=#005700;" parent="1" source="fuii63_GBz4Z8jPMlrWE-22" target="fuii63_GBz4Z8jPMlrWE-97" edge="1"><mxGeometry relative="1" as="geometry"><Array as="points"><mxPoint x="10200" y="1056"/><mxPoint x="16080" y="1056"/><mxPoint x="16080" y="1296"/></Array></mxGeometry></mxCell><mxCell id="fuii63_GBz4Z8jPMlrWE-100" style="edgeStyle=orthogonalEdgeStyle;rounded=0;orthogonalLoop=1;jettySize=auto;html=1;exitX=0.5;exitY=1;exitDx=0;exitDy=0;entryX=0.5;entryY=0;entryDx=0;entryDy=0;strokeWidth=12;fillColor=#008a00;strokeColor=#005700;" parent="1" source="fuii63_GBz4Z8jPMlrWE-22" target="fuii63_GBz4Z8jPMlrWE-99" edge="1"><mxGeometry relative="1" as="geometry"><Array as="points"><mxPoint x="10200" y="1056"/><mxPoint x="17184" y="1056"/><mxPoint x="17184" y="1344"/></Array></mxGeometry></mxCell><mxCell id="fuii63_GBz4Z8jPMlrWE-103" style="edgeStyle=orthogonalEdgeStyle;rounded=0;orthogonalLoop=1;jettySize=auto;html=1;exitX=0.5;exitY=1;exitDx=0;exitDy=0;fillColor=#008a00;strokeColor=#005700;strokeWidth=12;" parent="1" source="fuii63_GBz4Z8jPMlrWE-22" target="fuii63_GBz4Z8jPMlrWE-101" edge="1"><mxGeometry relative="1" as="geometry"/></mxCell><mxCell id="fuii63_GBz4Z8jPMlrWE-104" style="edgeStyle=orthogonalEdgeStyle;rounded=0;orthogonalLoop=1;jettySize=auto;html=1;exitX=0.5;exitY=1;exitDx=0;exitDy=0;entryX=0.5;entryY=0;entryDx=0;entryDy=0;fillColor=#008a00;strokeColor=#005700;strokeWidth=12;" parent="1" source="fuii63_GBz4Z8jPMlrWE-22" target="fuii63_GBz4Z8jPMlrWE-102" edge="1"><mxGeometry relative="1" as="geometry"><Array as="points"><mxPoint x="10200" y="1056"/><mxPoint x="18984" y="1056"/></Array></mxGeometry></mxCell><mxCell id="fuii63_GBz4Z8jPMlrWE-22" value="&lt;span style=&quot;font-size: 48px;&quot;&gt;Developer&lt;br&gt;&lt;/span&gt;" style="rhombus;whiteSpace=wrap;html=1;fillColor=#008a00;fontColor=#ffffff;strokeColor=#005700;" parent="1" vertex="1"><mxGeometry x="9936" y="336" width="528" height="480" as="geometry"/></mxCell><mxCell id="fuii63_GBz4Z8jPMlrWE-38" style="edgeStyle=orthogonalEdgeStyle;rounded=0;orthogonalLoop=1;jettySize=auto;html=1;exitX=0.5;exitY=1;exitDx=0;exitDy=0;entryX=0.5;entryY=0;entryDx=0;entryDy=0;fillColor=#008a00;strokeColor=#005700;strokeWidth=12;" parent="1" source="fuii63_GBz4Z8jPMlrWE-27" target="fuii63_GBz4Z8jPMlrWE-33" edge="1"><mxGeometry relative="1" as="geometry"><Array as="points"><mxPoint x="-17832" y="1680"/><mxPoint x="-23208" y="1680"/></Array></mxGeometry></mxCell><mxCell id="fuii63_GBz4Z8jPMlrWE-62" style="edgeStyle=orthogonalEdgeStyle;rounded=0;orthogonalLoop=1;jettySize=auto;html=1;exitX=0.5;exitY=1;exitDx=0;exitDy=0;entryX=0.5;entryY=0;entryDx=0;entryDy=0;fillColor=#008a00;strokeColor=#005700;strokeWidth=12;" parent="1" source="fuii63_GBz4Z8jPMlrWE-27" target="fuii63_GBz4Z8jPMlrWE-42" edge="1"><mxGeometry relative="1" as="geometry"><Array as="points"><mxPoint x="-17832" y="1680"/><mxPoint x="-19440" y="1680"/></Array></mxGeometry></mxCell><mxCell id="fuii63_GBz4Z8jPMlrWE-27" value="&lt;font style=&quot;font-size: 48px;&quot;&gt;Game accessories&lt;br&gt;Seller&lt;br&gt;&lt;/font&gt;" style="rhombus;whiteSpace=wrap;html=1;fillColor=#008a00;fontColor=#ffffff;strokeColor=#005700;" parent="1" vertex="1"><mxGeometry x="-18096" y="960" width="528" height="480" as="geometry"/></mxCell><mxCell id="fuii63_GBz4Z8jPMlrWE-29" style="edgeStyle=orthogonalEdgeStyle;rounded=0;orthogonalLoop=1;jettySize=auto;html=1;exitX=0.5;exitY=1;exitDx=0;exitDy=0;entryX=0.5;entryY=0;entryDx=0;entryDy=0;strokeWidth=12;fontSize=48;shadow=0;fillColor=#008a00;strokeColor=#005700;" parent="1" source="fuii63_GBz4Z8jPMlrWE-33" target="fuii63_GBz4Z8jPMlrWE-35" edge="1"><mxGeometry relative="1" as="geometry"/></mxCell><mxCell id="fuii63_GBz4Z8jPMlrWE-30" style="edgeStyle=orthogonalEdgeStyle;rounded=0;orthogonalLoop=1;jettySize=auto;html=1;exitX=0.5;exitY=1;exitDx=0;exitDy=0;entryX=0.5;entryY=0;entryDx=0;entryDy=0;strokeWidth=12;fontSize=48;shadow=0;fillColor=#008a00;strokeColor=#005700;" parent="1" source="fuii63_GBz4Z8jPMlrWE-33" target="fuii63_GBz4Z8jPMlrWE-34" edge="1"><mxGeometry relative="1" as="geometry"/></mxCell><mxCell id="fuii63_GBz4Z8jPMlrWE-32" style="edgeStyle=orthogonalEdgeStyle;rounded=0;orthogonalLoop=1;jettySize=auto;html=1;exitX=0.5;exitY=1;exitDx=0;exitDy=0;strokeWidth=12;fontSize=48;shadow=0;fillColor=#008a00;strokeColor=#005700;" parent="1" source="fuii63_GBz4Z8jPMlrWE-33" target="fuii63_GBz4Z8jPMlrWE-37" edge="1"><mxGeometry relative="1" as="geometry"/></mxCell><mxCell id="fuii63_GBz4Z8jPMlrWE-33" value="&lt;font style=&quot;font-size: 48px;&quot;&gt;Profile&lt;/font&gt;" style="rhombus;whiteSpace=wrap;html=1;strokeWidth=12;shadow=0;fillColor=#008a00;fontColor=#ffffff;strokeColor=#005700;" parent="1" vertex="1"><mxGeometry x="-23472" y="2208" width="528" height="528" as="geometry"/></mxCell><mxCell id="fuii63_GBz4Z8jPMlrWE-34" value="show information" style="rhombus;html=1;strokeWidth=12;fontSize=48;shadow=0;fillColor=#008a00;fontColor=#ffffff;strokeColor=#005700;" parent="1" vertex="1"><mxGeometry x="-24960" y="3072" width="384" height="384" as="geometry"/></mxCell><mxCell id="fuii63_GBz4Z8jPMlrWE-35" value="change information" style="rhombus;html=1;strokeWidth=12;fontSize=48;shadow=0;fillColor=#008a00;fontColor=#ffffff;strokeColor=#005700;" parent="1" vertex="1"><mxGeometry x="-24048" y="3072" width="432" height="384" as="geometry"/></mxCell><mxCell id="fuii63_GBz4Z8jPMlrWE-37" value="Back" style="rhombus;html=1;strokeWidth=12;fontSize=48;shadow=0;fillColor=#008a00;fontColor=#ffffff;strokeColor=#005700;" parent="1" vertex="1"><mxGeometry x="-22368" y="3072" width="384" height="368" as="geometry"/></mxCell><mxCell id="fuii63_GBz4Z8jPMlrWE-39" style="edgeStyle=orthogonalEdgeStyle;rounded=0;orthogonalLoop=1;jettySize=auto;html=1;exitX=0.5;exitY=1;exitDx=0;exitDy=0;entryX=0.5;entryY=0;entryDx=0;entryDy=0;strokeWidth=12;shadow=0;fillColor=#008a00;strokeColor=#005700;fontSize=48;" parent="1" source="fuii63_GBz4Z8jPMlrWE-42" target="fuii63_GBz4Z8jPMlrWE-45" edge="1"><mxGeometry relative="1" as="geometry"/></mxCell><mxCell id="fuii63_GBz4Z8jPMlrWE-40" style="edgeStyle=orthogonalEdgeStyle;rounded=0;orthogonalLoop=1;jettySize=auto;html=1;exitX=0.5;exitY=1;exitDx=0;exitDy=0;strokeWidth=12;shadow=0;fillColor=#008a00;strokeColor=#005700;fontSize=48;" parent="1" source="fuii63_GBz4Z8jPMlrWE-42" target="fuii63_GBz4Z8jPMlrWE-46" edge="1"><mxGeometry relative="1" as="geometry"/></mxCell><mxCell id="fuii63_GBz4Z8jPMlrWE-41" style="edgeStyle=orthogonalEdgeStyle;rounded=0;orthogonalLoop=1;jettySize=auto;html=1;exitX=0.5;exitY=1;exitDx=0;exitDy=0;strokeWidth=12;shadow=0;fillColor=#008a00;strokeColor=#005700;fontSize=48;" parent="1" source="fuii63_GBz4Z8jPMlrWE-42" target="fuii63_GBz4Z8jPMlrWE-48" edge="1"><mxGeometry relative="1" as="geometry"/></mxCell><mxCell id="fuii63_GBz4Z8jPMlrWE-42" value="accessories&lt;span id=&quot;docs-internal-guid-6d010adb-7fff-d54e-80f2-7f9fe5625fa7&quot;&gt;&lt;/span&gt;&lt;span id=&quot;docs-internal-guid-6d010adb-7fff-d54e-80f2-7f9fe5625fa7&quot;&gt;&lt;/span&gt;" style="rhombus;whiteSpace=wrap;html=1;strokeWidth=12;shadow=0;fillColor=#008a00;fontColor=#ffffff;strokeColor=#005700;fontSize=48;" parent="1" vertex="1"><mxGeometry x="-19632" y="2544" width="378" height="360" as="geometry"/></mxCell><mxCell id="fuii63_GBz4Z8jPMlrWE-43" style="edgeStyle=orthogonalEdgeStyle;rounded=0;orthogonalLoop=1;jettySize=auto;html=1;exitX=0.5;exitY=1;exitDx=0;exitDy=0;entryX=0.5;entryY=0;entryDx=0;entryDy=0;strokeWidth=12;shadow=0;fillColor=#008a00;strokeColor=#005700;fontSize=48;" parent="1" source="fuii63_GBz4Z8jPMlrWE-45" target="fuii63_GBz4Z8jPMlrWE-53" edge="1"><mxGeometry relative="1" as="geometry"/></mxCell><mxCell id="fuii63_GBz4Z8jPMlrWE-44" style="edgeStyle=orthogonalEdgeStyle;rounded=0;orthogonalLoop=1;jettySize=auto;html=1;exitX=0.5;exitY=1;exitDx=0;exitDy=0;entryX=0.5;entryY=0;entryDx=0;entryDy=0;strokeWidth=12;shadow=0;fillColor=#008a00;strokeColor=#005700;fontSize=48;" parent="1" source="fuii63_GBz4Z8jPMlrWE-45" target="fuii63_GBz4Z8jPMlrWE-55" edge="1"><mxGeometry relative="1" as="geometry"/></mxCell><mxCell id="fuii63_GBz4Z8jPMlrWE-45" value="&lt;font style=&quot;font-size: 48px;&quot;&gt;Modify &amp;amp; Delete&amp;nbsp;&lt;br style=&quot;font-size: 48px;&quot;&gt;accessories&lt;br style=&quot;font-size: 48px;&quot;&gt;&lt;/font&gt;" style="rhombus;whiteSpace=wrap;html=1;strokeWidth=12;shadow=0;fillColor=#008a00;fontColor=#ffffff;strokeColor=#005700;fontSize=48;" parent="1" vertex="1"><mxGeometry x="-19104" y="3120" width="384" height="384" as="geometry"/></mxCell><mxCell id="fuii63_GBz4Z8jPMlrWE-46" value="&lt;font style=&quot;font-size: 48px;&quot;&gt;Back&lt;/font&gt;" style="rhombus;whiteSpace=wrap;html=1;strokeWidth=12;shadow=0;fillColor=#008a00;fontColor=#ffffff;strokeColor=#005700;fontSize=48;" parent="1" vertex="1"><mxGeometry x="-20400" y="3120" width="384" height="384" as="geometry"/></mxCell><mxCell id="fuii63_GBz4Z8jPMlrWE-47" style="edgeStyle=orthogonalEdgeStyle;rounded=0;orthogonalLoop=1;jettySize=auto;html=1;exitX=0.5;exitY=1;exitDx=0;exitDy=0;entryX=0.5;entryY=0;entryDx=0;entryDy=0;strokeWidth=12;shadow=0;fillColor=#008a00;strokeColor=#005700;fontSize=48;" parent="1" source="fuii63_GBz4Z8jPMlrWE-48" target="fuii63_GBz4Z8jPMlrWE-50" edge="1"><mxGeometry relative="1" as="geometry"/></mxCell><mxCell id="fuii63_GBz4Z8jPMlrWE-48" value="&lt;font style=&quot;font-size: 48px;&quot;&gt;Create&amp;nbsp;&lt;/font&gt;accessories" style="rhombus;whiteSpace=wrap;html=1;strokeWidth=12;shadow=0;fillColor=#008a00;fontColor=#ffffff;strokeColor=#005700;fontSize=48;" parent="1" vertex="1"><mxGeometry x="-18000" y="3120" width="432" height="384" as="geometry"/></mxCell><mxCell id="fuii63_GBz4Z8jPMlrWE-49" style="edgeStyle=orthogonalEdgeStyle;rounded=0;orthogonalLoop=1;jettySize=auto;html=1;exitX=0.5;exitY=1;exitDx=0;exitDy=0;entryX=0.5;entryY=0;entryDx=0;entryDy=0;strokeWidth=12;shadow=0;fillColor=#008a00;strokeColor=#005700;fontSize=48;" parent="1" source="fuii63_GBz4Z8jPMlrWE-50" target="fuii63_GBz4Z8jPMlrWE-51" edge="1"><mxGeometry relative="1" as="geometry"/></mxCell><mxCell id="fuii63_GBz4Z8jPMlrWE-50" value="&lt;font style=&quot;font-size: 48px;&quot;&gt;Getting Information of a&amp;nbsp;&lt;/font&gt;accessories" style="shape=parallelogram;perimeter=parallelogramPerimeter;whiteSpace=wrap;html=1;fixedSize=1;strokeWidth=12;shadow=0;fillColor=#008a00;fontColor=#ffffff;strokeColor=#005700;fontSize=48;" parent="1" vertex="1"><mxGeometry x="-18096" y="3888" width="624" height="240" as="geometry"/></mxCell><mxCell id="fuii63_GBz4Z8jPMlrWE-51" value="&lt;font style=&quot;font-size: 48px;&quot;&gt;Creating the&amp;nbsp;&lt;/font&gt;accessories" style="rounded=0;whiteSpace=wrap;html=1;strokeWidth=12;shadow=0;fillColor=#008a00;fontColor=#ffffff;strokeColor=#005700;fontSize=48;" parent="1" vertex="1"><mxGeometry x="-18048" y="4416" width="528" height="240" as="geometry"/></mxCell><mxCell id="fuii63_GBz4Z8jPMlrWE-52" style="edgeStyle=orthogonalEdgeStyle;rounded=0;orthogonalLoop=1;jettySize=auto;html=1;exitX=0.5;exitY=1;exitDx=0;exitDy=0;entryX=0.5;entryY=0;entryDx=0;entryDy=0;strokeWidth=12;shadow=0;fillColor=#008a00;strokeColor=#005700;fontSize=48;" parent="1" source="fuii63_GBz4Z8jPMlrWE-53" target="fuii63_GBz4Z8jPMlrWE-57" edge="1"><mxGeometry relative="1" as="geometry"/></mxCell><mxCell id="fuii63_GBz4Z8jPMlrWE-53" value="&lt;font style=&quot;font-size: 48px;&quot;&gt;Delete&amp;nbsp;&lt;/font&gt;accessories" style="rhombus;whiteSpace=wrap;html=1;strokeWidth=12;shadow=0;fillColor=#008a00;fontColor=#ffffff;strokeColor=#005700;fontSize=48;" parent="1" vertex="1"><mxGeometry x="-18720" y="3696" width="336" height="336" as="geometry"/></mxCell><mxCell id="fuii63_GBz4Z8jPMlrWE-54" style="edgeStyle=orthogonalEdgeStyle;rounded=0;orthogonalLoop=1;jettySize=auto;html=1;exitX=0.5;exitY=1;exitDx=0;exitDy=0;entryX=0.5;entryY=0;entryDx=0;entryDy=0;strokeWidth=12;shadow=0;fillColor=#008a00;strokeColor=#005700;fontSize=48;" parent="1" source="fuii63_GBz4Z8jPMlrWE-55" target="fuii63_GBz4Z8jPMlrWE-59" edge="1"><mxGeometry relative="1" as="geometry"/></mxCell><mxCell id="fuii63_GBz4Z8jPMlrWE-55" value="&lt;font style=&quot;font-size: 48px;&quot;&gt;Modify&amp;nbsp;&lt;/font&gt;accessories" style="rhombus;whiteSpace=wrap;html=1;strokeWidth=12;shadow=0;fillColor=#008a00;fontColor=#ffffff;strokeColor=#005700;fontSize=48;" parent="1" vertex="1"><mxGeometry x="-19392" y="3696" width="336" height="336" as="geometry"/></mxCell><mxCell id="fuii63_GBz4Z8jPMlrWE-56" style="edgeStyle=orthogonalEdgeStyle;rounded=0;orthogonalLoop=1;jettySize=auto;html=1;exitX=0.5;exitY=1;exitDx=0;exitDy=0;entryX=0.5;entryY=0;entryDx=0;entryDy=0;strokeWidth=12;shadow=0;fillColor=#008a00;strokeColor=#005700;fontSize=48;" parent="1" source="fuii63_GBz4Z8jPMlrWE-57" target="fuii63_GBz4Z8jPMlrWE-60" edge="1"><mxGeometry relative="1" as="geometry"/></mxCell><mxCell id="fuii63_GBz4Z8jPMlrWE-57" value="&lt;font style=&quot;font-size: 48px;&quot;&gt;Getting Information of a&amp;nbsp;&lt;/font&gt;accessories" style="shape=parallelogram;perimeter=parallelogramPerimeter;whiteSpace=wrap;html=1;fixedSize=1;strokeWidth=12;shadow=0;fillColor=#008a00;fontColor=#ffffff;strokeColor=#005700;fontSize=48;" parent="1" vertex="1"><mxGeometry x="-18864" y="4224" width="624" height="240" as="geometry"/></mxCell><mxCell id="fuii63_GBz4Z8jPMlrWE-58" style="edgeStyle=orthogonalEdgeStyle;rounded=0;orthogonalLoop=1;jettySize=auto;html=1;exitX=0.5;exitY=1;exitDx=0;exitDy=0;entryX=0.5;entryY=0;entryDx=0;entryDy=0;strokeWidth=12;shadow=0;fillColor=#008a00;strokeColor=#005700;fontSize=48;" parent="1" source="fuii63_GBz4Z8jPMlrWE-59" target="fuii63_GBz4Z8jPMlrWE-61" edge="1"><mxGeometry relative="1" as="geometry"/></mxCell><mxCell id="fuii63_GBz4Z8jPMlrWE-59" value="&lt;font style=&quot;font-size: 48px;&quot;&gt;Getting Information of a&amp;nbsp;&lt;/font&gt;accessories" style="shape=parallelogram;perimeter=parallelogramPerimeter;whiteSpace=wrap;html=1;fixedSize=1;strokeWidth=12;shadow=0;fillColor=#008a00;fontColor=#ffffff;strokeColor=#005700;fontSize=48;" parent="1" vertex="1"><mxGeometry x="-19536" y="4224" width="624" height="240" as="geometry"/></mxCell><mxCell id="fuii63_GBz4Z8jPMlrWE-60" value="&lt;font style=&quot;font-size: 48px;&quot;&gt;Deleting the&amp;nbsp;&lt;/font&gt;accessories" style="rounded=0;whiteSpace=wrap;html=1;strokeWidth=12;shadow=0;fillColor=#008a00;fontColor=#ffffff;strokeColor=#005700;fontSize=48;" parent="1" vertex="1"><mxGeometry x="-18816" y="4656" width="528" height="240" as="geometry"/></mxCell><mxCell id="fuii63_GBz4Z8jPMlrWE-61" value="&lt;font style=&quot;font-size: 48px;&quot;&gt;Modifying the&amp;nbsp;&lt;/font&gt;accessories" style="rounded=0;whiteSpace=wrap;html=1;strokeWidth=12;shadow=0;fillColor=#008a00;fontColor=#ffffff;strokeColor=#005700;fontSize=48;" parent="1" vertex="1"><mxGeometry x="-19488" y="4656" width="528" height="240" as="geometry"/></mxCell><mxCell id="fuii63_GBz4Z8jPMlrWE-63" style="edgeStyle=orthogonalEdgeStyle;rounded=0;orthogonalLoop=1;jettySize=auto;html=1;exitX=0.5;exitY=1;exitDx=0;exitDy=0;entryX=0.5;entryY=0;entryDx=0;entryDy=0;strokeWidth=12;fontSize=48;shadow=0;fillColor=#008a00;strokeColor=#005700;" parent="1" source="fuii63_GBz4Z8jPMlrWE-67" target="fuii63_GBz4Z8jPMlrWE-69" edge="1"><mxGeometry relative="1" as="geometry"/></mxCell><mxCell id="fuii63_GBz4Z8jPMlrWE-64" style="edgeStyle=orthogonalEdgeStyle;rounded=0;orthogonalLoop=1;jettySize=auto;html=1;exitX=0.5;exitY=1;exitDx=0;exitDy=0;entryX=0.5;entryY=0;entryDx=0;entryDy=0;strokeWidth=12;fontSize=48;shadow=0;fillColor=#008a00;strokeColor=#005700;" parent="1" source="fuii63_GBz4Z8jPMlrWE-67" target="fuii63_GBz4Z8jPMlrWE-68" edge="1"><mxGeometry relative="1" as="geometry"/></mxCell><mxCell id="fuii63_GBz4Z8jPMlrWE-66" style="edgeStyle=orthogonalEdgeStyle;rounded=0;orthogonalLoop=1;jettySize=auto;html=1;exitX=0.5;exitY=1;exitDx=0;exitDy=0;strokeWidth=12;fontSize=48;shadow=0;fillColor=#008a00;strokeColor=#005700;" parent="1" source="fuii63_GBz4Z8jPMlrWE-67" target="fuii63_GBz4Z8jPMlrWE-71" edge="1"><mxGeometry relative="1" as="geometry"/></mxCell><mxCell id="fuii63_GBz4Z8jPMlrWE-67" value="&lt;font style=&quot;font-size: 48px;&quot;&gt;Profile&lt;/font&gt;" style="rhombus;whiteSpace=wrap;html=1;strokeWidth=12;shadow=0;fillColor=#008a00;fontColor=#ffffff;strokeColor=#005700;" parent="1" vertex="1"><mxGeometry x="8976" y="1296" width="528" height="528" as="geometry"/></mxCell><mxCell id="fuii63_GBz4Z8jPMlrWE-68" value="show information" style="rhombus;html=1;strokeWidth=12;fontSize=48;shadow=0;fillColor=#008a00;fontColor=#ffffff;strokeColor=#005700;" parent="1" vertex="1"><mxGeometry x="8304" y="2160" width="384" height="384" as="geometry"/></mxCell><mxCell id="fuii63_GBz4Z8jPMlrWE-69" value="change information" style="rhombus;html=1;strokeWidth=12;fontSize=48;shadow=0;fillColor=#008a00;fontColor=#ffffff;strokeColor=#005700;" parent="1" vertex="1"><mxGeometry x="9024" y="2160" width="432" height="384" as="geometry"/></mxCell><mxCell id="fuii63_GBz4Z8jPMlrWE-71" value="Back" style="rhombus;html=1;strokeWidth=12;fontSize=48;shadow=0;fillColor=#008a00;fontColor=#ffffff;strokeColor=#005700;" parent="1" vertex="1"><mxGeometry x="9840" y="2160" width="384" height="368" as="geometry"/></mxCell><mxCell id="fuii63_GBz4Z8jPMlrWE-73" style="edgeStyle=orthogonalEdgeStyle;rounded=0;orthogonalLoop=1;jettySize=auto;html=1;exitX=0.5;exitY=1;exitDx=0;exitDy=0;entryX=0.5;entryY=0;entryDx=0;entryDy=0;strokeWidth=12;shadow=0;fillColor=#008a00;strokeColor=#005700;" parent="1" source="fuii63_GBz4Z8jPMlrWE-76" target="fuii63_GBz4Z8jPMlrWE-79" edge="1"><mxGeometry relative="1" as="geometry"/></mxCell><mxCell id="fuii63_GBz4Z8jPMlrWE-74" style="edgeStyle=orthogonalEdgeStyle;rounded=0;orthogonalLoop=1;jettySize=auto;html=1;exitX=0.5;exitY=1;exitDx=0;exitDy=0;strokeWidth=12;shadow=0;fillColor=#008a00;strokeColor=#005700;" parent="1" source="fuii63_GBz4Z8jPMlrWE-76" target="fuii63_GBz4Z8jPMlrWE-80" edge="1"><mxGeometry relative="1" as="geometry"/></mxCell><mxCell id="fuii63_GBz4Z8jPMlrWE-75" style="edgeStyle=orthogonalEdgeStyle;rounded=0;orthogonalLoop=1;jettySize=auto;html=1;exitX=0.5;exitY=1;exitDx=0;exitDy=0;strokeWidth=12;shadow=0;fillColor=#008a00;strokeColor=#005700;" parent="1" source="fuii63_GBz4Z8jPMlrWE-76" target="fuii63_GBz4Z8jPMlrWE-82" edge="1"><mxGeometry relative="1" as="geometry"/></mxCell><mxCell id="fuii63_GBz4Z8jPMlrWE-76" value="&lt;font style=&quot;font-size: 48px;&quot;&gt;Games&lt;/font&gt;" style="rhombus;whiteSpace=wrap;html=1;strokeWidth=12;shadow=0;fillColor=#008a00;fontColor=#ffffff;strokeColor=#005700;" parent="1" vertex="1"><mxGeometry x="13296" y="1584" width="378" height="360" as="geometry"/></mxCell><mxCell id="fuii63_GBz4Z8jPMlrWE-77" style="edgeStyle=orthogonalEdgeStyle;rounded=0;orthogonalLoop=1;jettySize=auto;html=1;exitX=0.5;exitY=1;exitDx=0;exitDy=0;entryX=0.5;entryY=0;entryDx=0;entryDy=0;strokeWidth=12;shadow=0;fillColor=#008a00;strokeColor=#005700;" parent="1" source="fuii63_GBz4Z8jPMlrWE-79" target="fuii63_GBz4Z8jPMlrWE-87" edge="1"><mxGeometry relative="1" as="geometry"/></mxCell><mxCell id="fuii63_GBz4Z8jPMlrWE-78" style="edgeStyle=orthogonalEdgeStyle;rounded=0;orthogonalLoop=1;jettySize=auto;html=1;exitX=0.5;exitY=1;exitDx=0;exitDy=0;entryX=0.5;entryY=0;entryDx=0;entryDy=0;strokeWidth=12;shadow=0;fillColor=#008a00;strokeColor=#005700;" parent="1" source="fuii63_GBz4Z8jPMlrWE-79" target="fuii63_GBz4Z8jPMlrWE-89" edge="1"><mxGeometry relative="1" as="geometry"/></mxCell><mxCell id="fuii63_GBz4Z8jPMlrWE-79" value="&lt;font style=&quot;font-size: 48px;&quot;&gt;Modify &amp;amp; Delete&amp;nbsp;&lt;br&gt;Games&lt;/font&gt;" style="rhombus;whiteSpace=wrap;html=1;strokeWidth=12;shadow=0;fillColor=#008a00;fontColor=#ffffff;strokeColor=#005700;" parent="1" vertex="1"><mxGeometry x="13824" y="2160" width="384" height="384" as="geometry"/></mxCell><mxCell id="fuii63_GBz4Z8jPMlrWE-80" value="&lt;font style=&quot;font-size: 48px;&quot;&gt;Back&lt;/font&gt;" style="rhombus;whiteSpace=wrap;html=1;strokeWidth=12;shadow=0;fillColor=#008a00;fontColor=#ffffff;strokeColor=#005700;" parent="1" vertex="1"><mxGeometry x="12528" y="2160" width="384" height="384" as="geometry"/></mxCell><mxCell id="fuii63_GBz4Z8jPMlrWE-81" style="edgeStyle=orthogonalEdgeStyle;rounded=0;orthogonalLoop=1;jettySize=auto;html=1;exitX=0.5;exitY=1;exitDx=0;exitDy=0;entryX=0.5;entryY=0;entryDx=0;entryDy=0;strokeWidth=12;shadow=0;fillColor=#008a00;strokeColor=#005700;" parent="1" source="fuii63_GBz4Z8jPMlrWE-82" target="fuii63_GBz4Z8jPMlrWE-84" edge="1"><mxGeometry relative="1" as="geometry"/></mxCell><mxCell id="fuii63_GBz4Z8jPMlrWE-82" value="&lt;font style=&quot;font-size: 48px;&quot;&gt;Create Games&lt;/font&gt;" style="rhombus;whiteSpace=wrap;html=1;strokeWidth=12;shadow=0;fillColor=#008a00;fontColor=#ffffff;strokeColor=#005700;" parent="1" vertex="1"><mxGeometry x="14928" y="2160" width="432" height="384" as="geometry"/></mxCell><mxCell id="fuii63_GBz4Z8jPMlrWE-83" style="edgeStyle=orthogonalEdgeStyle;rounded=0;orthogonalLoop=1;jettySize=auto;html=1;exitX=0.5;exitY=1;exitDx=0;exitDy=0;entryX=0.5;entryY=0;entryDx=0;entryDy=0;strokeWidth=12;shadow=0;fillColor=#008a00;strokeColor=#005700;" parent="1" source="fuii63_GBz4Z8jPMlrWE-84" target="fuii63_GBz4Z8jPMlrWE-85" edge="1"><mxGeometry relative="1" as="geometry"/></mxCell><mxCell id="fuii63_GBz4Z8jPMlrWE-84" value="&lt;font style=&quot;font-size: 48px;&quot;&gt;Getting Information of a game&lt;/font&gt;" style="shape=parallelogram;perimeter=parallelogramPerimeter;whiteSpace=wrap;html=1;fixedSize=1;strokeWidth=12;shadow=0;fillColor=#008a00;fontColor=#ffffff;strokeColor=#005700;" parent="1" vertex="1"><mxGeometry x="14832" y="2928" width="624" height="240" as="geometry"/></mxCell><mxCell id="fuii63_GBz4Z8jPMlrWE-85" value="&lt;font style=&quot;font-size: 48px;&quot;&gt;Creating the game&lt;/font&gt;" style="rounded=0;whiteSpace=wrap;html=1;strokeWidth=12;shadow=0;fillColor=#008a00;fontColor=#ffffff;strokeColor=#005700;" parent="1" vertex="1"><mxGeometry x="14880" y="3456" width="528" height="240" as="geometry"/></mxCell><mxCell id="fuii63_GBz4Z8jPMlrWE-86" style="edgeStyle=orthogonalEdgeStyle;rounded=0;orthogonalLoop=1;jettySize=auto;html=1;exitX=0.5;exitY=1;exitDx=0;exitDy=0;entryX=0.5;entryY=0;entryDx=0;entryDy=0;strokeWidth=12;shadow=0;fillColor=#008a00;strokeColor=#005700;" parent="1" source="fuii63_GBz4Z8jPMlrWE-87" target="fuii63_GBz4Z8jPMlrWE-91" edge="1"><mxGeometry relative="1" as="geometry"/></mxCell><mxCell id="fuii63_GBz4Z8jPMlrWE-87" value="&lt;font style=&quot;font-size: 48px;&quot;&gt;Delete Game&lt;/font&gt;" style="rhombus;whiteSpace=wrap;html=1;strokeWidth=12;shadow=0;fillColor=#008a00;fontColor=#ffffff;strokeColor=#005700;" parent="1" vertex="1"><mxGeometry x="14208" y="2736" width="336" height="336" as="geometry"/></mxCell><mxCell id="fuii63_GBz4Z8jPMlrWE-88" style="edgeStyle=orthogonalEdgeStyle;rounded=0;orthogonalLoop=1;jettySize=auto;html=1;exitX=0.5;exitY=1;exitDx=0;exitDy=0;entryX=0.5;entryY=0;entryDx=0;entryDy=0;strokeWidth=12;shadow=0;fillColor=#008a00;strokeColor=#005700;" parent="1" source="fuii63_GBz4Z8jPMlrWE-89" target="fuii63_GBz4Z8jPMlrWE-93" edge="1"><mxGeometry relative="1" as="geometry"/></mxCell><mxCell id="fuii63_GBz4Z8jPMlrWE-89" value="&lt;font style=&quot;font-size: 48px;&quot;&gt;Modify Game&lt;/font&gt;" style="rhombus;whiteSpace=wrap;html=1;strokeWidth=12;shadow=0;fillColor=#008a00;fontColor=#ffffff;strokeColor=#005700;" parent="1" vertex="1"><mxGeometry x="13536" y="2736" width="336" height="336" as="geometry"/></mxCell><mxCell id="fuii63_GBz4Z8jPMlrWE-90" style="edgeStyle=orthogonalEdgeStyle;rounded=0;orthogonalLoop=1;jettySize=auto;html=1;exitX=0.5;exitY=1;exitDx=0;exitDy=0;entryX=0.5;entryY=0;entryDx=0;entryDy=0;strokeWidth=12;shadow=0;fillColor=#008a00;strokeColor=#005700;" parent="1" source="fuii63_GBz4Z8jPMlrWE-91" target="fuii63_GBz4Z8jPMlrWE-94" edge="1"><mxGeometry relative="1" as="geometry"/></mxCell><mxCell id="fuii63_GBz4Z8jPMlrWE-91" value="&lt;font style=&quot;font-size: 48px;&quot;&gt;Getting Information of a game&lt;/font&gt;" style="shape=parallelogram;perimeter=parallelogramPerimeter;whiteSpace=wrap;html=1;fixedSize=1;strokeWidth=12;shadow=0;fillColor=#008a00;fontColor=#ffffff;strokeColor=#005700;" parent="1" vertex="1"><mxGeometry x="14064" y="3264" width="624" height="240" as="geometry"/></mxCell><mxCell id="fuii63_GBz4Z8jPMlrWE-92" style="edgeStyle=orthogonalEdgeStyle;rounded=0;orthogonalLoop=1;jettySize=auto;html=1;exitX=0.5;exitY=1;exitDx=0;exitDy=0;entryX=0.5;entryY=0;entryDx=0;entryDy=0;strokeWidth=12;shadow=0;fillColor=#008a00;strokeColor=#005700;" parent="1" source="fuii63_GBz4Z8jPMlrWE-93" target="fuii63_GBz4Z8jPMlrWE-95" edge="1"><mxGeometry relative="1" as="geometry"/></mxCell><mxCell id="fuii63_GBz4Z8jPMlrWE-93" value="&lt;font style=&quot;font-size: 48px;&quot;&gt;Getting Information of a game&lt;/font&gt;" style="shape=parallelogram;perimeter=parallelogramPerimeter;whiteSpace=wrap;html=1;fixedSize=1;strokeWidth=12;shadow=0;fillColor=#008a00;fontColor=#ffffff;strokeColor=#005700;" parent="1" vertex="1"><mxGeometry x="13392" y="3264" width="624" height="240" as="geometry"/></mxCell><mxCell id="fuii63_GBz4Z8jPMlrWE-94" value="&lt;font style=&quot;font-size: 48px;&quot;&gt;Deleting the game&lt;/font&gt;" style="rounded=0;whiteSpace=wrap;html=1;strokeWidth=12;shadow=0;fillColor=#008a00;fontColor=#ffffff;strokeColor=#005700;" parent="1" vertex="1"><mxGeometry x="14112" y="3696" width="528" height="240" as="geometry"/></mxCell><mxCell id="fuii63_GBz4Z8jPMlrWE-95" value="&lt;font style=&quot;font-size: 48px;&quot;&gt;Modifying the game&lt;/font&gt;" style="rounded=0;whiteSpace=wrap;html=1;strokeWidth=12;shadow=0;fillColor=#008a00;fontColor=#ffffff;strokeColor=#005700;" parent="1" vertex="1"><mxGeometry x="13440" y="3696" width="528" height="240" as="geometry"/></mxCell><mxCell id="fuii63_GBz4Z8jPMlrWE-97" value="&lt;font style=&quot;font-size: 48px;&quot;&gt;Inbox&lt;br&gt;&lt;/font&gt;" style="rhombus;whiteSpace=wrap;html=1;fillColor=#008a00;fontColor=#ffffff;strokeColor=#005700;" parent="1" vertex="1"><mxGeometry x="15840" y="1392" width="480" height="480" as="geometry"/></mxCell><mxCell id="fuii63_GBz4Z8jPMlrWE-99" value="&lt;font style=&quot;font-size: 48px;&quot;&gt;Schedule&lt;br&gt;Event&lt;/font&gt;" style="rhombus;whiteSpace=wrap;html=1;fillColor=#008a00;fontColor=#ffffff;strokeColor=#005700;" parent="1" vertex="1"><mxGeometry x="16944" y="1344" width="528" height="576" as="geometry"/></mxCell><mxCell id="fuii63_GBz4Z8jPMlrWE-101" value="&lt;font style=&quot;font-size: 48px;&quot;&gt;See Feedback&lt;/font&gt;" style="rhombus;whiteSpace=wrap;html=1;fillColor=#008a00;fontColor=#ffffff;strokeColor=#005700;" parent="1" vertex="1"><mxGeometry x="17760" y="1296" width="624" height="624" as="geometry"/></mxCell><mxCell id="fuii63_GBz4Z8jPMlrWE-102" value="&lt;font style=&quot;font-size: 48px;&quot;&gt;Add Developers&lt;/font&gt;" style="rhombus;whiteSpace=wrap;html=1;fillColor=#008a00;fontColor=#ffffff;strokeColor=#005700;" parent="1" vertex="1"><mxGeometry x="18672" y="1296" width="624" height="624" as="geometry"/></mxCell><mxCell id="fuii63_GBz4Z8jPMlrWE-110" style="edgeStyle=orthogonalEdgeStyle;rounded=0;orthogonalLoop=1;jettySize=auto;html=1;exitX=1;exitY=0.5;exitDx=0;exitDy=0;entryX=0.5;entryY=0;entryDx=0;entryDy=0;strokeWidth=12;fillColor=#008a00;strokeColor=#005700;" parent="1" source="fuii63_GBz4Z8jPMlrWE-108" target="fuii63_GBz4Z8jPMlrWE-2" edge="1"><mxGeometry relative="1" as="geometry"/></mxCell><mxCell id="fuii63_GBz4Z8jPMlrWE-111" style="edgeStyle=orthogonalEdgeStyle;rounded=0;orthogonalLoop=1;jettySize=auto;html=1;exitX=0;exitY=0.5;exitDx=0;exitDy=0;entryX=0.5;entryY=0;entryDx=0;entryDy=0;strokeWidth=12;fillColor=#008a00;strokeColor=#005700;" parent="1" source="fuii63_GBz4Z8jPMlrWE-108" target="fuii63_GBz4Z8jPMlrWE-3" edge="1"><mxGeometry relative="1" as="geometry"/></mxCell><mxCell id="fuii63_GBz4Z8jPMlrWE-108" value="&lt;font style=&quot;font-size: 48px;&quot;&gt;Filter By Kind&lt;/font&gt;" style="rhombus;whiteSpace=wrap;html=1;fillColor=#008a00;fontColor=#ffffff;strokeColor=#005700;" parent="1" vertex="1"><mxGeometry x="-8352" y="3360" width="432" height="384" as="geometry"/></mxCell><mxCell id="fuii63_GBz4Z8jPMlrWE-138" style="edgeStyle=orthogonalEdgeStyle;rounded=0;orthogonalLoop=1;jettySize=auto;html=1;exitX=0.5;exitY=1;exitDx=0;exitDy=0;entryX=0.5;entryY=0;entryDx=0;entryDy=0;strokeWidth=12;fontSize=48;shadow=0;fillColor=#008a00;strokeColor=#005700;" parent="1" source="fuii63_GBz4Z8jPMlrWE-142" target="fuii63_GBz4Z8jPMlrWE-144" edge="1"><mxGeometry relative="1" as="geometry"/></mxCell><mxCell id="fuii63_GBz4Z8jPMlrWE-139" style="edgeStyle=orthogonalEdgeStyle;rounded=0;orthogonalLoop=1;jettySize=auto;html=1;exitX=0.5;exitY=1;exitDx=0;exitDy=0;entryX=0.5;entryY=0;entryDx=0;entryDy=0;strokeWidth=12;fontSize=48;shadow=0;fillColor=#008a00;strokeColor=#005700;" parent="1" source="fuii63_GBz4Z8jPMlrWE-142" edge="1"><mxGeometry relative="1" as="geometry"><mxPoint x="2736" y="5039.999999999998" as="targetPoint"/></mxGeometry></mxCell><mxCell id="fuii63_GBz4Z8jPMlrWE-141" style="edgeStyle=orthogonalEdgeStyle;rounded=0;orthogonalLoop=1;jettySize=auto;html=1;exitX=0.5;exitY=1;exitDx=0;exitDy=0;strokeWidth=12;fontSize=48;shadow=0;fillColor=#008a00;strokeColor=#005700;" parent="1" source="fuii63_GBz4Z8jPMlrWE-142" target="fuii63_GBz4Z8jPMlrWE-146" edge="1"><mxGeometry relative="1" as="geometry"><Array as="points"><mxPoint x="4296" y="4872"/><mxPoint x="5088" y="4872"/><mxPoint x="5088" y="5224"/></Array></mxGeometry></mxCell><mxCell id="fuii63_GBz4Z8jPMlrWE-142" value="&lt;font style=&quot;font-size: 48px;&quot;&gt;Profile&lt;/font&gt;" style="rhombus;whiteSpace=wrap;html=1;strokeWidth=12;shadow=0;fillColor=#008a00;fontColor=#ffffff;strokeColor=#005700;" parent="1" vertex="1"><mxGeometry x="3888" y="4176" width="576" height="528" as="geometry"/></mxCell><mxCell id="fuii63_GBz4Z8jPMlrWE-143" value="show information" style="rhombus;html=1;strokeWidth=12;fontSize=48;shadow=0;fillColor=#008a00;fontColor=#ffffff;strokeColor=#005700;" parent="1" vertex="1"><mxGeometry x="2544" y="5088" width="384" height="384" as="geometry"/></mxCell><mxCell id="fuii63_GBz4Z8jPMlrWE-144" value="change information" style="rhombus;html=1;strokeWidth=12;fontSize=48;shadow=0;fillColor=#008a00;fontColor=#ffffff;strokeColor=#005700;" parent="1" vertex="1"><mxGeometry x="3456" y="5040" width="432" height="384" as="geometry"/></mxCell><mxCell id="fuii63_GBz4Z8jPMlrWE-146" value="Back" style="rhombus;html=1;strokeWidth=12;fontSize=48;shadow=0;fillColor=#008a00;fontColor=#ffffff;strokeColor=#005700;" parent="1" vertex="1"><mxGeometry x="4896" y="5040" width="384" height="368" as="geometry"/></mxCell><mxCell id="fuii63_GBz4Z8jPMlrWE-148" value="&lt;font color=&quot;#ffffff&quot; style=&quot;font-size: 48px;&quot;&gt;Show Most Active Users&lt;/font&gt;" style="rhombus;whiteSpace=wrap;html=1;fillColor=#008a00;fontColor=#ffffff;strokeColor=#005700;" parent="1" vertex="1"><mxGeometry x="1776" y="2592" width="432" height="384" as="geometry"/></mxCell><mxCell id="fuii63_GBz4Z8jPMlrWE-150" value="&lt;font style=&quot;font-size: 48px;&quot;&gt;Best Sellers&lt;/font&gt;" style="rhombus;whiteSpace=wrap;html=1;fillColor=#008a00;fontColor=#ffffff;strokeColor=#005700;" parent="1" vertex="1"><mxGeometry x="-6672" y="3264" width="528" height="528" as="geometry"/></mxCell><mxCell id="fuii63_GBz4Z8jPMlrWE-152" value="&lt;font style=&quot;font-size: 48px;&quot;&gt;Plus Price Of Items User Want&lt;/font&gt;" style="rhombus;whiteSpace=wrap;html=1;fillColor=#008a00;fontColor=#ffffff;strokeColor=#005700;" parent="1" vertex="1"><mxGeometry x="-9984" y="4032" width="384" height="384" as="geometry"/></mxCell><mxCell id="fuii63_GBz4Z8jPMlrWE-154" value="&lt;font style=&quot;font-size: 48px;&quot;&gt;Add New Admin&lt;/font&gt;" style="rhombus;whiteSpace=wrap;html=1;fillColor=#008a00;fontColor=#ffffff;strokeColor=#005700;" parent="1" vertex="1"><mxGeometry x="1488" y="720" width="528" height="384" as="geometry"/></mxCell><mxCell id="60RMkCieqsHSDHHVUvW2-26" value="&lt;font color=&quot;#ffffff&quot; style=&quot;font-size: 48px; background-color: rgb(30, 148, 30);&quot;&gt;Report &lt;font style=&quot;&quot;&gt;Game&lt;/font&gt;&lt;/font&gt;" style="rhombus;whiteSpace=wrap;html=1;fillColor=#008a00;fontColor=#ffffff;strokeColor=#005700;" parent="1" vertex="1"><mxGeometry x="12816" y="2544" width="432" height="432" as="geometry"/></mxCell></root></mxGraphModel></diagram></mxfile>